# xmcd
#
# Track frame offsets:
#	150
#	17357
#	34152
#	51185
#	68157
#	85140
#	111202
#	127650
#	141717
#	158397
#
# Disc length: 2310 seconds
#
# Revision: 0
# Processed by: cddbd v1.4PL0 Copyright (c) Steve Scherf et al.
# Submitted via: dBpowerAMP V4.0
#
DISCID=7909040a
DTITLE=Wild West - Muchacho de Campo
DYEAR=1994
DGENRE=Country
TTITLE0=Mamá, no Dejes Que tu Hijo Sea un Vaquero
TTITLE1=Vámonos Para Texas
TTITLE2=La Reina Del Rodeo
TTITLE3=Fiesta en el Rancho
TTITLE4=Sé Que te Amo
TTITLE5=Los 7 Magníficos
TTITLE6=Muchacho de Campo
TTITLE7=Vaquero de Rodeo
TTITLE8=Ojos Nublados de Joe
TTITLE9=Vaquero Tractor
EXTD=
EXTT0=
EXTT1=
EXTT2=
EXTT3=
EXTT4=
EXTT5=
EXTT6=
EXTT7=
EXTT8=
EXTT9=
PLAYORDER=
